PathFileType	4	(X/Y/Z)	45_1_2_p0_0-186_filt_butterworth.trc
DataRate	CameraRate	NumFrames	NumMarkers	Units	OrigDataRate	OrigDataStartFrame	OrigNumFrames
59.0	59.0	5	27	m	59.0	46	186
Frame#	Time	RHip			RKnee			RAnkle			RBigToe			RSmallToe			RHeel			LHip			LKnee			LAnkle			LBigToe			LSmallToe			LHeel			Neck			Head			Nose			RShoulder			RElbow			RWrist			RThumb			RIndex			RPinky			LShoulder			LElbow			LWrist			LThumb			LIndex			LPinky			
		X1	Y1	Z1	X2	Y2	Z2	X3	Y3	Z3	X4	Y4	Z4	X5	Y5	Z5	X6	Y6	Z6	X7	Y7	Z7	X8	Y8	Z8	X9	Y9	Z9	X10	Y10	Z10	X11	Y11	Z11	X12	Y12	Z12	X13	Y13	Z13	X14	Y14	Z14	X15	Y15	Z15	X16	Y16	Z16	X17	Y17	Z17	X18	Y18	Z18	X19	Y19	Z19	X20	Y20	Z20	X21	Y21	Z21	X22	Y22	Z22	X23	Y23	Z23	X24	Y24	Z24	X25	Y25	Z25	X26	Y26	Z26	X27	Y27	Z27	
46	0.7796610169491526	0.535845145607187	0.45297904226909247	0.7787962500969465	0.5433222788446231	0.5810027204398359	1.2353897534683147	0.5911935296866402	0.7850900471368991	1.671659511805478	0.5933202816967098	0.6705792328567208	1.74725510020187	0.6546365339093658	0.6876301071235935	1.7418404743664166	0.5640641523086523	0.9079726211688782	1.7299985989279492	0.3082319923788769	0.4861757186713627	0.7999980596871351	0.36874101088031863	0.6740311589226686	1.2641621588795335	0.3994777477729542	0.8496177342506328	1.7034952033062516	0.4435320044978575	0.641521333639541	1.7486312911755029	0.39045465865527373	0.7082482469524982	1.7645598616688258	0.41587856349148644	0.9226598511557798	1.750649881849428	0.36807104856347406	0.22272224292936424	0.3138086179916159	0.3518813151040899	0.06029713915783795	0.09950845603327638	0.36221723119821836	0.07578934933163119	0.25899421835833586	0.5374001165332352	0.26711717529497414	0.34887500013063116	0.6462445251110435	0.3381479629033589	0.6042569625622155	0.5961109659096011	0.32685347813372634	0.8616563979814079	0.5213848912324589	0.30933164993165113	0.9746764421261624	0.536711757546357	0.34208498529029857	0.9902997070313403	0.5763968701915846	0.3721220057549147	0.9855644840057839	0.2213925926631015	0.2632390630444854	0.3960529944365124	0.18482650718704285	0.4142024867023141	0.6373013767913366	0.2521792495992899	0.3879496290297227	0.8889673740448891	0.3252999543283426	0.36700820017074476	0.9735312073446378	0.2944935904941125	0.3954310799428257	0.9986285217324335	0.2568553741093612	0.39593274224290526	0.9999508039656144
47	0.7966101694915254	0.5334921228298675	0.4530664868173554	0.7783067256968753	0.5429542459029172	0.5806576592153845	1.2355435832173152	0.5912079699097151	0.7853669973444086	1.6716643858054876	0.5905141433446162	0.6606569766619986	1.7453621965908284	0.6512850643128465	0.6863592303075676	1.7419530910852017	0.5652221577776472	0.9123685526820663	1.730934768337264	0.30757255665761524	0.48618679485532895	0.8005197334947132	0.3653658301056096	0.668971718335052	1.2580296149090153	0.39893445231568403	0.8486042706320475	1.703378435561103	0.44338834204174843	0.6414724707321666	1.748633369383195	0.39028749061587925	0.7083045198267572	1.7644987886628067	0.4165569965649367	0.9263031823626747	1.7509099117298903	0.3658245311989563	0.22282482588636704	0.3146485922059848	0.3511114467041641	0.06033663478879525	0.10060640712026014	0.36045924991586314	0.07440660755155044	0.2593156094475584	0.5375326863208423	0.2672185381203058	0.349704416669127	0.6465235343484982	0.3392570925434468	0.6033948895415748	0.6040316351325139	0.33627134718583884	0.8604829306167368	0.5296581363878635	0.3226212455148665	0.9745924152381835	0.5423958164459022	0.34997657173946406	0.9909441367684102	0.5801089111413699	0.3734224441235167	0.98631062772423	0.2199625278182474	0.2641551475542829	0.3960893563595193	0.18352873851922835	0.4179482898404922	0.6373952767943478	0.2494795008028275	0.3907972025116761	0.8908792073237147	0.31332805853475487	0.38822721397236254	0.9786961374227379	0.2800359064940686	0.4003974400804678	1.001009011563209	0.24884422975247733	0.3881103325637528	1.0014486970363783
48	0.8135593220338984	0.5292130652883138	0.4534462423970398	0.7785045070371953	0.5426112454844357	0.5802878967102622	1.2357100970914203	0.5907687792915198	0.7874722833125934	1.6714325326459154	0.5873817055298134	0.6490033604254541	1.7438028330792714	0.6473379067995444	0.6831570632140327	1.7416183446645284	0.5659493307202516	0.9146941474616705	1.7325919954595412	0.3051481065367834	0.48583421514868735	0.8013558059204972	0.36296101505854944	0.6635078652138865	1.2521152134630014	0.3990180848674443	0.8482635413491557	1.7033119455103778	0.44317005024099493	0.6406405516232253	1.7487008973521772	0.3901773836460501	0.7077151009141154	1.7642693173186306	0.4172601804870932	0.9343659562894207	1.7522854331268802	0.3628517268990767	0.22284745179431464	0.31481371120789303	0.3501824749479999	0.060779487842205174	0.10226009633036855	0.3592599670290605	0.07405060105449908	0.2595080726146095	0.5375776989364949	0.2672016720770651	0.3508227237509316	0.647204681492835	0.34176406736189807	0.6012670503831177	0.6113125081213053	0.3417577572832273	0.8586062993038087	0.5376744843622143	0.33773807623009977	0.9739326614170127	0.5486700145464781	0.35310485683022796	0.9916266753478468	0.583914408699514	0.37316333437239685	0.9864655932988651	0.21729884405321334	0.2667827349769538	0.3958082290055467	0.18310982138873916	0.4196776106819425	0.6382331142790507	0.24522013062354053	0.39442845182558917	0.8914716738136285	0.30117654504492564	0.40950917960590616	0.982642036696795	0.26944174873639914	0.39701357981788704	1.0024182320109032	0.24037408753364603	0.38972156009969566	1.0028200541630452
49	0.8305084745762712	0.5239974682313755	0.45402342389396205	0.779244483822036	0.5423523217804502	0.5799937913625476	1.235878006333159	0.5895840596007772	0.7919702119606218	1.6708587057091182	0.5848539268999671	0.6406863017797825	1.7433410169322283	0.6441865558911942	0.6776182592329979	1.7406634204427278	0.5663596662282474	0.9153892270283329	1.734364143212603	0.3020074658471942	0.48543507566445215	0.8019890285786664	0.362001289342361	0.6578289533710064	1.2485714378913628	0.3994346077578904	0.8486038014524806	1.7033085848692706	0.44309004560614923	0.6395908733264332	1.7486393508718052	0.39008587453478916	0.7069160044289724	1.7639439182067467	0.4168756827499645	0.9447346694159408	1.7546610106719145	0.3601452124771074	0.22259522528498743	0.31491142569358466	0.3495910466726398	0.061577921584127886	0.1038656761150009	0.3588867773006535	0.07399450239632127	0.25962286274107177	0.5375607388637712	0.2671426906668436	0.3516417109536838	0.6480995115832253	0.34489923381805404	0.5986794507121498	0.6178410637176122	0.3411677982520446	0.8561135349262472	0.5456736529838171	0.3476870685134016	0.9724989525992791	0.5554368813056124	0.3561174236912328	0.9924377172046759	0.5884189136581478	0.37290341027899704	0.9862505330222996	0.21445109602880671	0.27050387172673274	0.3953260058871115	0.18285525494811422	0.41975237260304105	0.6396546145076005	0.23947568149594622	0.39864421438136666	0.8913691840201878	0.2915704380991299	0.4237087992909264	0.985004712237807	0.26254586968470883	0.39046244360666654	1.0030823312955528	0.23101358181855142	0.39871983012918316	1.0040800416930047
50	0.847457627118644	0.5197169381567389	0.4548397297082671	0.7806162306544256	0.5423036601420796	0.579915110630179	1.2360025781053174	0.588058650274696	0.7975765462014235	1.6701530847425787	0.5836537911819022	0.6385732828518561	1.7436963277373871	0.6426108367680302	0.6730326661608788	1.7397283494909868	0.5664335746679061	0.9144162831942485	1.7348422281827798	0.2993739448913439	0.4852225381216319	0.8021739552757482	0.3620458418010659	0.6552303380776606	1.2487437180336538	0.39998594651411656	0.8495393261939286	1.7033510621684234	0.44365352796393964	0.6393610309030329	1.74849895254169	0.39002202986267775	0.7065505284189099	1.7637423207628418	0.4151625109059466	0.9528682555274848	1.7568486492378221	0.3585943045713766	0.22223551257785176	0.31526190002286564	0.34928750383005613	0.062005087562601056	0.10461048116811765	0.3589821502206051	0.0738829846690073	0.2597027303676495	0.5375204163548618	0.26708243172584895	0.3519802936909949	0.6488919616627639	0.34726057636934116	0.5969166946714282	0.6232936725357667	0.3378287811999556	0.8539143650287965	0.5529386955425997	0.3506185785306726	0.9708153408868585	0.5620836257256974	0.36136708416630414	0.9933994480979138	0.5938224885594313	0.37515731563025706	0.9858432482037449	0.21264720476827512	0.27344062027293065	0.39493166797215096	0.18192543284459833	0.4192850752375564	0.641044922833917	0.23280417359504102	0.40560216152686474	0.8910303539381238	0.2855718140647704	0.4288639854604821	0.9857311754583787	0.25841084154325583	0.38552777898818313	1.0032437522040036	0.22188898183716688	0.41056286282370424	1.005137106078271
